<?xml version="1.0" encoding="utf-8"?>
<!-- Generator: Adobe Illustrator 18.0.0, SVG Export Plug-In . SVG Version: 6.00 Build 0)  -->
<!DOCTYPE svg PUBLIC "-//W3C//DTD SVG 1.1//EN" "http://www.w3.org/Graphics/SVG/1.1/DTD/svg11.dtd">
<svg version="1.1" id="Layer_1" xmlns="http://www.w3.org/2000/svg" xmlns:xlink="http://www.w3.org/1999/xlink" x="0px" y="0px"
	 viewBox="0 0 100 100" enable-background="new 0 0 100 100" xml:space="preserve">
<path id="WhatsApp" fill="#F2F2F2" d="M95,49.2c0,24.2-19.8,43.8-44.2,43.8c-7.7,0-15-2-21.4-5.5L5,95.4l8-23.5
	c-4-6.6-6.3-14.4-6.3-22.6C6.6,25,26.4,5.4,50.8,5.4S95,25,95,49.2z M50.8,12.4c-20.5,0-37.1,16.5-37.1,36.9
	c0,8.1,2.6,15.5,7.1,21.6l-4.6,13.7L30.4,80c5.9,3.9,12.9,6.1,20.4,6.1C71.3,86.1,88,69.6,88,49.2S71.3,12.4,50.8,12.4z M73.1,59.3
	c-0.3-0.4-1-0.7-2.1-1.3c-1.1-0.5-6.4-3.1-7.4-3.5c-1-0.4-1.7-0.5-2.4,0.5c-0.7,1.1-2.8,3.5-3.4,4.2c-0.6,0.7-1.3,0.8-2.3,0.3
	c-1.1-0.5-4.6-1.7-8.7-5.3c-3.2-2.8-5.4-6.4-6-7.4c-0.6-1.1-0.1-1.7,0.5-2.2c0.5-0.5,1.1-1.3,1.6-1.9c0.5-0.6,0.7-1.1,1.1-1.8
	c0.4-0.7,0.2-1.3-0.1-1.9c-0.3-0.5-2.4-5.8-3.3-8c-0.9-2.1-1.8-1.8-2.4-1.8c-0.6,0-1.4-0.1-2.1-0.1s-1.9,0.3-2.9,1.3
	c-1,1.1-3.8,3.7-3.8,9c0,5.3,3.9,10.4,4.4,11.1c0.5,0.7,7.5,11.9,18.5,16.2c11,4.3,11,2.9,13,2.7c2-0.2,6.4-2.6,7.3-5.1
	C73.4,61.9,73.4,59.8,73.1,59.3z"/>
</svg>
